<svg width="230" height="67" viewBox="0 0 230 67" fill="none" xmlns="http://www.w3.org/2000/svg">
<path d="M96.6985 9.25952V40.7286H88.6226V9.25952H96.6985ZM117.267 23.9993V30.3186C117.267 32.6391 117.148 34.3365 116.915 35.4242C116.683 36.5048 116.186 37.5127 115.424 38.4541C114.661 39.3957 113.68 40.0855 112.479 40.5363C111.279 40.9806 109.907 41.2059 108.355 41.2059C106.618 41.2059 105.146 41.0136 103.946 40.6356C102.739 40.2512 101.804 39.6742 101.141 38.9052C100.472 38.1294 99.9938 37.1944 99.7089 36.1002C99.4236 35.0062 99.2845 33.3621 99.2845 31.1739V24.5632C99.2845 22.1628 99.5431 20.293 100.06 18.9402C100.578 17.5942 101.512 16.5135 102.858 15.6981C104.204 14.8822 105.928 14.4712 108.024 14.4712C109.781 14.4712 111.292 14.7363 112.559 15.2601C113.819 15.7843 114.794 16.4671 115.483 17.3091C116.166 18.1513 116.637 19.0197 116.889 19.9151C117.141 20.81 117.267 22.1696 117.267 23.9993ZM109.429 22.0567C109.429 20.7373 109.357 19.9019 109.217 19.5638C109.071 19.2187 108.766 19.0463 108.295 19.0463C107.825 19.0463 107.513 19.2187 107.354 19.5638C107.201 19.9019 107.122 20.7373 107.122 22.0567V33.6935C107.122 34.9136 107.201 35.7092 107.354 36.074C107.513 36.4452 107.818 36.6309 108.276 36.6309C108.747 36.6309 109.051 36.465 109.204 36.1269C109.357 35.7887 109.429 35.0662 109.429 33.9522V22.0567ZM137.722 14.9485V34.8075C137.722 37.4861 137.663 39.2236 137.537 40.0057C137.417 40.7882 136.973 41.6172 136.224 42.4924C135.468 43.3674 134.42 44.0371 133.081 44.4949C131.735 44.9523 130.044 45.1844 128.009 45.1844C125.502 45.1844 123.493 44.76 121.975 43.9111C120.456 43.0626 119.674 41.3915 119.621 38.8985H127.219C127.219 40.039 127.644 40.6094 128.493 40.6094C129.103 40.6094 129.507 40.4369 129.706 40.0855C129.905 39.7338 130.004 38.9979 130.004 37.8839V35.9345C129.328 36.5445 128.612 37.002 127.869 37.314C127.12 37.6255 126.337 37.7845 125.515 37.7845C124.096 37.7845 122.93 37.4996 122.014 36.9293C121.093 36.3589 120.47 35.6098 120.131 34.6883C119.793 33.7599 119.621 32.4404 119.621 30.7295V21.3672C119.621 18.9203 120.065 17.1566 120.947 16.0824C121.835 15.0081 123.188 14.4712 124.998 14.4712C125.986 14.4712 126.888 14.6767 127.703 15.0812C128.519 15.4859 129.248 16.0891 129.885 16.8982L130.442 14.9485H137.722ZM129.885 21.7849C129.885 20.6046 129.812 19.8555 129.673 19.5304C129.533 19.2057 129.222 19.0463 128.745 19.0463C128.274 19.0463 127.942 19.2319 127.75 19.5968C127.557 19.9679 127.458 20.6975 127.458 21.7849V30.451C127.458 31.6047 127.531 32.3542 127.677 32.6924C127.823 33.037 128.135 33.2095 128.599 33.2095C129.136 33.2095 129.487 33.004 129.646 32.5863C129.805 32.175 129.885 31.2335 129.885 29.7682V21.7849ZM158.231 23.9993V30.3186C158.231 32.6391 158.112 34.3365 157.88 35.4242C157.648 36.5048 157.15 37.5127 156.388 38.4541C155.625 39.3957 154.644 40.0855 153.444 40.5363C152.243 40.9806 150.871 41.2059 149.319 41.2059C147.582 41.2059 146.11 41.0136 144.91 40.6356C143.703 40.2512 142.768 39.6742 142.105 38.9052C141.436 38.1294 140.958 37.1944 140.673 36.1002C140.388 35.0062 140.249 33.3621 140.249 31.1739V24.5632C140.249 22.1628 140.507 20.293 141.024 18.9402C141.542 17.5942 142.477 16.5135 143.823 15.6981C145.169 14.8822 146.893 14.4712 148.988 14.4712C150.745 14.4712 152.257 14.7363 153.523 15.2601C154.783 15.7843 155.758 16.4671 156.447 17.3091C157.13 18.1513 157.601 19.0197 157.853 19.9151C158.105 20.81 158.231 22.1696 158.231 23.9993ZM150.393 22.0567C150.393 20.7373 150.321 19.9019 150.181 19.5638C150.035 19.2187 149.731 19.0463 149.26 19.0463C148.789 19.0463 148.477 19.2187 148.318 19.5638C148.166 19.9019 148.086 20.7373 148.086 22.0567V33.6935C148.086 34.9136 148.166 35.7092 148.318 36.074C148.477 36.4452 148.782 36.6309 149.24 36.6309C149.711 36.6309 150.016 36.465 150.168 36.1269C150.321 35.7887 150.393 35.0662 150.393 33.9522V22.0567ZM169.059 11.5271V15.5852H171.247V19.683H169.059V33.4682C169.059 35.1588 169.152 36.107 169.331 36.2993C169.51 36.4918 170.252 36.5911 171.565 36.5911V40.7286H168.389C166.599 40.7286 165.319 40.6555 164.55 40.5033C163.788 40.3574 163.111 40.0124 162.528 39.4755C161.944 38.9383 161.58 38.3281 161.434 37.6319C161.294 36.9424 161.221 35.3181 161.221 32.7583V19.683H159.55V15.5852H161.221V11.5271H169.059ZM190.164 14.9485L187.916 33.6005C187.558 36.5581 187.26 38.5738 187.021 39.6476C186.783 40.7219 186.385 41.6104 185.828 42.3068C185.277 43.0094 184.501 43.52 183.513 43.8515C182.525 44.1834 180.941 44.3491 178.773 44.3491H174.018V40.2116C175.238 40.2116 176.021 40.1515 176.366 40.0255C176.717 39.9063 176.896 39.6277 176.896 39.2037C176.896 38.9915 176.73 38.0961 176.406 36.5048L172.109 14.9485H179.224L181.796 32.3804L183.063 14.9485H190.164ZM199.546 14.9485L199.407 17.2298C200.11 16.3013 200.879 15.6119 201.721 15.1543C202.563 14.6966 203.485 14.4712 204.48 14.4712C205.7 14.4712 206.754 14.7963 207.643 15.4524C208.524 16.109 209.081 16.8649 209.3 17.7202C209.519 18.5757 209.632 20.0279 209.632 22.0766V32.9444C209.632 35.2915 209.492 36.9559 209.214 37.9502C208.935 38.9383 208.365 39.7338 207.503 40.324C206.641 40.9142 205.6 41.2059 204.38 41.2059C203.412 41.2059 202.51 40.9806 201.681 40.5231C200.853 40.0656 200.097 39.3893 199.407 38.4876V44.3888H191.57V14.9485H199.546ZM201.794 22.4478C201.794 20.8498 201.735 19.8885 201.615 19.5503C201.503 19.212 201.177 19.0463 200.641 19.0463C200.117 19.0463 199.785 19.2386 199.633 19.6298C199.48 20.0144 199.407 20.9559 199.407 22.4478V33.1364C199.407 34.6883 199.487 35.6627 199.639 36.0474C199.798 36.4384 200.137 36.6309 200.66 36.6309C201.171 36.6309 201.483 36.452 201.609 36.0939C201.735 35.7422 201.794 34.8739 201.794 33.5012V22.4478ZM230.001 28.2763H219.816V33.866C219.816 35.0328 219.903 35.7887 220.068 36.1269C220.241 36.465 220.565 36.6309 221.049 36.6309C221.653 36.6309 222.057 36.4054 222.256 35.9611C222.462 35.5101 222.561 34.6418 222.561 33.3553V29.9471H230.001V31.8567C230.001 33.4547 229.902 34.6815 229.702 35.5367C229.497 36.3919 229.026 37.3072 228.29 38.2817C227.554 39.2566 226.613 39.9858 225.479 40.4767C224.345 40.9607 222.926 41.2059 221.215 41.2059C219.558 41.2059 218.092 40.9674 216.819 40.4834C215.553 40.0057 214.565 39.3495 213.855 38.5137C213.146 37.6784 212.662 36.7568 212.39 35.7489C212.118 34.7479 211.979 33.289 211.979 31.3662V23.8404C211.979 21.5858 212.284 19.809 212.894 18.5026C213.504 17.203 214.498 16.202 215.884 15.512C217.277 14.8162 218.868 14.4712 220.672 14.4712C222.873 14.4712 224.69 14.8889 226.122 15.7243C227.554 16.56 228.562 17.6673 229.139 19.0463C229.716 20.419 230.001 22.3616 230.001 24.8613V28.2763ZM222.163 24.099V22.2157C222.163 20.8764 222.091 20.0212 221.945 19.6298C221.799 19.2386 221.501 19.0463 221.049 19.0463C220.493 19.0463 220.148 19.212 220.015 19.5439C219.883 19.8753 219.816 20.7635 219.816 22.2157V24.099H222.163Z" fill="white"/>
<path d="M132.484 53.7316C131.45 53.7316 130.632 54.077 130.032 54.765C129.434 55.4556 129.135 56.399 129.135 57.5977C129.135 58.8312 129.423 59.7836 130.001 60.4544C130.577 61.127 131.402 61.4638 132.473 61.4638C133.128 61.4638 133.878 61.3449 134.72 61.1094V62.0708C134.067 62.3168 133.262 62.4401 132.303 62.4401C130.916 62.4401 129.845 62.0202 129.093 61.1777C128.338 60.3355 127.96 59.1391 127.96 57.5887C127.96 56.6168 128.143 55.7657 128.506 55.0356C128.868 54.3057 129.392 53.7425 130.078 53.3488C130.762 52.9532 131.569 52.7553 132.497 52.7553C133.487 52.7553 134.349 52.9356 135.088 53.2941L134.624 54.2352C133.911 53.8989 133.198 53.7316 132.484 53.7316ZM195.934 59.8053C195.934 60.6347 195.633 61.2811 195.033 61.7454C194.43 62.2092 193.614 62.4401 192.583 62.4401C191.466 62.4401 190.606 62.2949 190.005 62.0066V60.949C190.392 61.1117 190.813 61.2414 191.268 61.3363C191.723 61.4308 192.174 61.4768 192.623 61.4768C193.353 61.4768 193.902 61.3382 194.271 61.061C194.641 60.7863 194.826 60.4015 194.826 59.9065C194.826 59.5811 194.76 59.313 194.63 59.1061C194.498 58.8972 194.278 58.7061 193.973 58.5279C193.665 58.3521 193.196 58.1519 192.57 57.9295C191.695 57.6153 191.068 57.2438 190.692 56.8148C190.316 56.3859 190.127 55.8249 190.127 55.1324C190.127 54.4066 190.399 53.8283 190.944 53.3994C191.492 52.9709 192.213 52.7553 193.111 52.7553C194.047 52.7553 194.909 52.9266 195.694 53.2697L195.354 54.222C194.575 53.8943 193.819 53.7316 193.084 53.7316C192.506 53.7316 192.051 53.8569 191.725 54.1055C191.398 54.3563 191.235 54.7012 191.235 55.1456C191.235 55.4733 191.296 55.7394 191.415 55.9483C191.536 56.1572 191.738 56.3484 192.024 56.5223C192.31 56.696 192.748 56.8871 193.337 57.0983C194.324 57.4503 195.004 57.8287 195.376 58.2332C195.747 58.6355 195.934 59.1612 195.934 59.8053ZM142.708 58.772C142.708 59.9242 142.418 60.8237 141.839 61.4701C141.259 62.1169 140.458 62.4401 139.435 62.4401C138.804 62.4401 138.244 62.2927 137.753 61.9958C137.265 61.6989 136.887 61.2725 136.621 60.7179C136.352 60.1638 136.22 59.5151 136.22 58.772C136.22 57.6194 136.508 56.7222 137.085 56.0803C137.658 55.438 138.459 55.1171 139.479 55.1171C140.469 55.1171 141.252 55.4447 141.834 56.102C142.418 56.7596 142.708 57.6505 142.708 58.772ZM137.329 58.772C137.329 59.6738 137.509 60.3617 137.869 60.8346C138.23 61.3074 138.76 61.5428 139.462 61.5428C140.161 61.5428 140.693 61.3074 141.056 60.8368C141.419 60.3663 141.599 59.6778 141.599 58.772C141.599 57.8748 141.419 57.1931 141.056 56.7266C140.693 56.2606 140.157 56.0274 139.449 56.0274C138.747 56.0274 138.219 56.2561 137.863 56.7158C137.507 57.1755 137.329 57.8617 137.329 58.772ZM153.58 62.3081V57.7143C153.58 57.1534 153.461 56.7312 153.219 56.4496C152.98 56.168 152.606 56.0274 152.1 56.0274C151.433 56.0274 150.943 56.2187 150.624 56.6015C150.307 56.9839 150.147 57.571 150.147 58.3652V62.3081H149.078V57.7143C149.078 57.1534 148.957 56.7312 148.718 56.4496C148.478 56.168 148.102 56.0274 147.59 56.0274C146.921 56.0274 146.431 56.2276 146.118 56.6299C145.808 57.0304 145.652 57.6899 145.652 58.6047V62.3081H144.583V55.249H145.452L145.626 56.2123H145.678C145.879 55.8692 146.164 55.6008 146.532 55.4073C146.899 55.2138 147.31 55.1171 147.765 55.1171C148.867 55.1171 149.591 55.5171 149.93 56.3154H149.98C150.191 55.946 150.497 55.6535 150.895 55.438C151.295 55.2247 151.75 55.1171 152.261 55.1171C153.059 55.1171 153.657 55.3214 154.055 55.7327C154.451 56.1417 154.651 56.7994 154.651 57.7008V62.3081H153.58ZM160.142 62.4401C159.682 62.4401 159.262 62.3542 158.882 62.1851C158.503 62.0157 158.182 61.754 157.925 61.4022H157.848C157.899 61.8132 157.925 62.2046 157.925 62.5743V65.4748H156.856V55.249H157.725L157.875 56.2123H157.925C158.2 55.8249 158.521 55.5459 158.886 55.3743C159.251 55.2029 159.669 55.1171 160.142 55.1171C161.079 55.1171 161.802 55.438 162.312 56.0781C162.82 56.718 163.075 57.6153 163.075 58.772C163.075 59.9332 162.816 60.8346 162.299 61.4768C161.78 62.1191 161.063 62.4401 160.142 62.4401ZM159.988 56.0274C159.267 56.0274 158.743 56.2276 158.422 56.6254C158.099 57.0259 157.934 57.6614 157.925 58.5343V58.772C157.925 59.7637 158.09 60.4739 158.422 60.9006C158.752 61.3294 159.284 61.5428 160.014 61.5428C160.623 61.5428 161.103 61.2965 161.448 60.8016C161.794 60.307 161.967 59.6273 161.967 58.7588C161.967 57.8792 161.794 57.204 161.448 56.7334C161.103 56.2628 160.615 56.0274 159.988 56.0274ZM169.283 62.3081L169.07 61.3033H169.018C168.665 61.7454 168.316 62.0464 167.966 62.2046C167.614 62.3609 167.179 62.4401 166.655 62.4401C165.954 62.4401 165.406 62.2597 165.008 61.899C164.613 61.5361 164.412 61.0239 164.412 60.3554C164.412 58.9279 165.554 58.1803 167.832 58.1121L169.031 58.0727V57.6352C169.031 57.0828 168.912 56.6739 168.674 56.4102C168.435 56.1463 168.054 56.0143 167.531 56.0143C166.941 56.0143 166.277 56.1946 165.534 56.5553L165.206 55.7372C165.554 55.5479 165.934 55.3987 166.348 55.2906C166.763 55.183 167.179 55.1301 167.595 55.1301C168.437 55.1301 169.059 55.3172 169.466 55.6911C169.873 56.0649 170.075 56.663 170.075 57.4878V62.3081H169.283ZM166.867 61.5559C167.533 61.5559 168.057 61.3734 168.435 61.0086C168.815 60.6433 169.006 60.133 169.006 59.4758V58.838L167.935 58.8841C167.087 58.9126 166.473 59.0446 166.097 59.28C165.721 59.5129 165.534 59.8781 165.534 60.3708C165.534 60.7577 165.651 61.0524 165.886 61.2526C166.119 61.4547 166.447 61.5559 166.867 61.5559ZM177.114 62.3081V57.7406C177.114 57.1643 176.985 56.7357 176.721 56.4518C176.459 56.168 176.048 56.0274 175.489 56.0274C174.75 56.0274 174.209 56.2276 173.866 56.6254C173.521 57.0259 173.35 57.6854 173.35 58.6047V62.3081H172.281V55.249H173.149L173.323 56.2123H173.376C173.596 55.8647 173.902 55.5944 174.298 55.4028C174.693 55.2116 175.133 55.1171 175.619 55.1171C176.47 55.1171 177.11 55.3214 177.539 55.7327C177.97 56.1417 178.183 56.7994 178.183 57.7008V62.3081H177.114ZM179.258 55.249H180.404L181.952 59.2733C182.291 60.1927 182.502 60.8567 182.583 61.2635H182.634C182.691 61.0438 182.808 60.6696 182.986 60.1398C183.164 59.6096 183.747 57.9801 184.736 55.249H185.882L182.847 63.2845C182.546 64.0804 182.196 64.6437 181.794 64.9755C181.391 65.3076 180.899 65.4748 180.314 65.4748C179.988 65.4748 179.665 65.4374 179.349 65.3669V64.5139C179.584 64.5645 179.848 64.5908 180.14 64.5908C180.875 64.5908 181.4 64.1772 181.713 63.3549L182.106 62.3478L179.258 55.249ZM198.767 62.3081H197.698V52.2803H198.767V62.3081ZM207.13 58.772C207.13 59.9242 206.84 60.8237 206.261 61.4701C205.681 62.1169 204.88 62.4401 203.857 62.4401C203.226 62.4401 202.666 62.2927 202.175 61.9958C201.687 61.6989 201.309 61.2725 201.043 60.7179C200.774 60.1638 200.643 59.5151 200.643 58.772C200.643 57.6194 200.931 56.7222 201.507 56.0803C202.08 55.438 202.881 55.1171 203.902 55.1171C204.891 55.1171 205.674 55.4447 206.257 56.102C206.84 56.7596 207.13 57.6505 207.13 58.772ZM201.751 58.772C201.751 59.6738 201.931 60.3617 202.292 60.8346C202.652 61.3074 203.182 61.5428 203.884 61.5428C204.583 61.5428 205.115 61.3074 205.478 60.8368C205.841 60.3663 206.022 59.6778 206.022 58.772C206.022 57.8748 205.841 57.1931 205.478 56.7266C205.115 56.2606 204.579 56.0274 203.871 56.0274C203.169 56.0274 202.641 56.2561 202.285 56.7158C201.929 57.1755 201.751 57.8617 201.751 58.772ZM214.785 55.249V55.9262L213.478 56.0803C213.597 56.2298 213.705 56.4279 213.799 56.6697C213.894 56.9115 213.94 57.1842 213.94 57.4897C213.94 58.1803 213.705 58.7322 213.232 59.1436C212.759 59.5549 212.111 59.7615 211.286 59.7615C211.075 59.7615 210.879 59.7438 210.692 59.7108C210.237 59.9508 210.011 60.2541 210.011 60.6194C210.011 60.8129 210.09 60.9557 210.248 61.048C210.408 61.1405 210.681 61.1866 211.068 61.1866H212.317C213.082 61.1866 213.67 61.3471 214.081 61.6703C214.49 61.9913 214.695 62.46 214.695 63.0733C214.695 63.854 214.382 64.4502 213.756 64.8593C213.127 65.2702 212.212 65.4748 211.009 65.4748C210.085 65.4748 209.373 65.3032 208.874 64.9601C208.372 64.617 208.122 64.1311 208.122 63.5068C208.122 63.0779 208.26 62.7063 208.535 62.3917C208.81 62.0794 209.197 61.866 209.694 61.7562C209.513 61.6726 209.362 61.5473 209.241 61.3756C209.118 61.2021 209.056 61.0018 209.056 60.7753C209.056 60.5158 209.126 60.2917 209.263 60.0982C209.401 59.9043 209.617 59.7176 209.914 59.5372C209.549 59.3854 209.252 59.1305 209.021 58.7698C208.792 58.409 208.676 57.9954 208.676 57.5316C208.676 56.7596 208.909 56.1639 209.373 55.7458C209.837 55.3259 210.494 55.1171 211.345 55.1171C211.715 55.1171 212.047 55.1609 212.344 55.249H214.785ZM209.153 63.4933C209.153 63.8739 209.314 64.1641 209.637 64.3621C209.958 64.5578 210.42 64.6567 211.022 64.6567C211.919 64.6567 212.586 64.5225 213.016 64.2545C213.448 63.9882 213.665 63.623 213.665 63.1656C213.665 62.7831 213.547 62.5192 213.309 62.3719C213.074 62.2245 212.63 62.1499 211.976 62.1499H210.694C210.209 62.1499 209.83 62.2665 209.559 62.497C209.289 62.7281 209.153 63.0603 209.153 63.4933ZM209.733 57.5073C209.733 58.0023 209.872 58.376 210.151 58.6291C210.431 58.8819 210.82 59.0094 211.319 59.0094C212.364 59.0094 212.885 58.5013 212.885 57.4878C212.885 56.4256 212.357 55.8955 211.299 55.8955C210.796 55.8955 210.408 56.0319 210.138 56.3022C209.868 56.573 209.733 56.9752 209.733 57.5073ZM220.575 62.3081L220.362 61.3033H220.309C219.957 61.7454 219.608 62.0464 219.258 62.2046C218.906 62.3609 218.47 62.4401 217.947 62.4401C217.246 62.4401 216.698 62.2597 216.3 61.899C215.904 61.5361 215.704 61.0239 215.704 60.3554C215.704 58.9279 216.845 58.1803 219.124 58.1121L220.322 58.0727V57.6352C220.322 57.0828 220.203 56.6739 219.966 56.4102C219.726 56.1463 219.346 56.0143 218.823 56.0143C218.233 56.0143 217.569 56.1946 216.826 56.5553L216.498 55.7372C216.845 55.5479 217.226 55.3987 217.639 55.2906C218.055 55.183 218.47 55.1301 218.886 55.1301C219.728 55.1301 220.351 55.3172 220.758 55.6911C221.164 56.0649 221.367 56.663 221.367 57.4878V62.3081H220.575ZM218.158 61.5559C218.825 61.5559 219.348 61.3734 219.726 61.0086C220.107 60.6433 220.298 60.133 220.298 59.4758V58.838L219.227 58.8841C218.378 58.9126 217.765 59.0446 217.389 59.28C217.013 59.5129 216.826 59.8781 216.826 60.3708C216.826 60.7577 216.942 61.0524 217.178 61.2526C217.41 61.4547 217.738 61.5559 218.158 61.5559ZM228.406 62.3081V57.7406C228.406 57.1643 228.276 56.7357 228.012 56.4518C227.751 56.168 227.339 56.0274 226.781 56.0274C226.042 56.0274 225.501 56.2276 225.158 56.6254C224.813 57.0259 224.641 57.6854 224.641 58.6047V62.3081H223.572V55.249H224.441L224.615 56.2123H224.668C224.888 55.8647 225.193 55.5944 225.589 55.4028C225.985 55.2116 226.425 55.1171 226.911 55.1171C227.762 55.1171 228.402 55.3214 228.831 55.7327C229.262 56.1417 229.475 56.7994 229.475 57.7008V62.3081H228.406Z" fill="white"/>
<path fill-rule="evenodd" clip-rule="evenodd" d="M46.2232 10.9697C41.6507 4.34377 34.0071 0 25.3473 0C11.3484 0 0 11.3484 0 25.3473C0 37.1862 8.11678 47.1287 19.0887 49.9152C19.0517 49.3884 19.0314 48.8567 19.0314 48.3205C19.0314 37.0779 27.2982 27.7661 38.0843 26.1306C38.1604 19.8285 41.3672 14.2801 46.2232 10.9697Z" fill="white"/>
<path fill-rule="evenodd" clip-rule="evenodd" d="M41.4769 66.1366C51.3162 66.1366 59.2928 58.1601 59.2928 48.3207C59.2928 47.1281 59.1747 45.9635 58.9512 44.8365C58.2111 44.9256 57.4586 44.9729 56.6944 44.9729C47.9226 44.9729 40.5692 38.9041 38.6003 30.7371C30.1288 32.1127 23.6611 39.4609 23.6611 48.3207C23.6611 58.1601 31.6376 66.1366 41.4769 66.1366Z" fill="#FD9724"/>
<path fill-rule="evenodd" clip-rule="evenodd" d="M56.6942 39.6818C64.0521 39.6818 70.0167 33.7171 70.0167 26.3593C70.0167 19.0017 64.0521 13.0371 56.6942 13.0371C49.3367 13.0371 43.3721 19.0017 43.3721 26.3593C43.3721 33.7171 49.3367 39.6818 56.6942 39.6818ZM56.6946 32.7614C60.2303 32.7614 63.0968 29.8954 63.0968 26.3593C63.0968 22.8236 60.2303 19.9571 56.6946 19.9571C53.1586 19.9571 50.2924 22.8236 50.2924 26.3593C50.2924 29.8954 53.1586 32.7614 56.6946 32.7614Z" fill="white"/>
</svg>
