<svg width="34" height="34" viewBox="0 0 34 34" fill="none" xmlns="http://www.w3.org/2000/svg">
<path d="M24.1864 0H9.81364C4.39372 0 0 4.39372 0 9.81365V24.1864C0 29.6063 4.39372 34 9.81364 34H24.1864C29.6063 34 34 29.6063 34 24.1864V9.81365C34 4.39372 29.6063 0 24.1864 0ZM26.0951 5.87193C24.96 5.87193 24.0399 6.79204 24.0399 7.92708C24.0399 9.06212 24.96 9.98223 26.0951 9.98223C27.2301 9.98223 28.1502 9.06212 28.1502 7.92708C28.1502 6.79204 27.2301 5.87193 26.0951 5.87193ZM16.9791 8.26261C12.1069 8.26261 8.15723 12.2123 8.15723 17.0844C8.15723 21.9566 12.1069 25.9063 16.9791 25.9063C21.8512 25.9063 25.8009 21.9566 25.8009 17.0844C25.8009 12.2123 21.8512 8.26261 16.9791 8.26261ZM16.9791 22.8031C13.8207 22.8031 11.2604 20.2428 11.2604 17.0844C11.2604 13.9261 13.8207 11.3658 16.9791 11.3658C20.1374 11.3658 22.6978 13.9261 22.6978 17.0844C22.6978 20.2428 20.1374 22.8031 16.9791 22.8031ZM30.8688 24.439C30.8688 28.0368 27.9523 30.9533 24.3546 30.9533H9.64544C6.04766 30.9533 3.1311 28.0368 3.1311 24.439V9.72993C3.1311 6.13215 6.04766 3.21559 9.64544 3.21559H24.3546C27.9523 3.21559 30.8688 6.13215 30.8688 9.72993V24.439Z" fill="white"/>
</svg>
