<svg width="29" height="28" viewBox="0 0 29 28" fill="none" xmlns="http://www.w3.org/2000/svg">
<path fill-rule="evenodd" clip-rule="evenodd" d="M0.312072 9.07088V28H6.48753V9.07088H0.312072ZM3.43928 0C5.31528 0 6.80031 1.41949 6.80031 3.23353C6.80031 5.04752 5.31528 6.46701 3.43928 6.46701C1.48502 6.46701 0 5.04752 0 3.23353C0 1.41949 1.48502 0 3.43928 0ZM10.005 9.07088C10.005 9.70209 10.0832 10.4114 10.0832 11.1216V22.0057C10.0832 24.1353 10.005 25.7915 10.005 28H16.2588V16.8004C16.2588 16.0113 16.8843 14.9863 17.2746 14.5918C18.8378 13.0145 22.8244 12.8567 22.8244 17.7464V28H29V16.4058C29 14.8285 28.3744 12.6989 27.7496 11.752C25.8735 8.91225 22.3561 8.04507 19.4634 9.07006C17.9784 9.54346 17.2745 10.4106 16.4152 11.5942C16.1805 11.8309 16.4152 11.5942 16.2588 11.752V9.07006H10.005V9.07088Z" fill="white"/>
</svg>
