<svg width="24" height="24" viewBox="0 0 24 24" fill="none" xmlns="http://www.w3.org/2000/svg">
<path fill-rule="evenodd" clip-rule="evenodd" d="M11.9999 0C5.38308 0 0 5.38331 0 12.0001C0 18.6171 5.38308 24 11.9999 24C18.6169 24 24 18.6171 24 12.0001C24 5.38331 18.6169 0 11.9999 0ZM2.30115 12.0001C2.30115 11.266 2.38624 10.5514 2.54116 9.86322H4.70286C4.58752 10.5691 4.522 11.2921 4.522 12.0311C4.522 12.7488 4.58479 13.4502 4.69512 14.1372H2.54116C2.38624 13.4491 2.30115 12.7343 2.30115 12.0001ZM6.82383 12.0311C6.82383 11.2887 6.90004 10.5651 7.04155 9.86322H10.8494V14.1372H7.02517C6.89436 13.4575 6.82383 12.7554 6.82383 12.0311ZM13.1506 3.63748C14.4933 4.73789 15.527 6.06944 16.2104 7.56229H13.1506V3.63748ZM10.8494 3.63111V7.56161H7.78729C8.47161 6.06762 9.50422 4.73221 10.8494 3.63111ZM10.8494 16.4386V20.3794C9.47328 19.2698 8.43361 17.9374 7.75453 16.4386H10.8494ZM13.1506 20.3734V16.4386H16.2441C15.5657 17.9362 14.5242 19.2646 13.1506 20.3734ZM13.1506 14.1372V9.86322H16.9619C17.1034 10.5648 17.1759 11.289 17.1759 12.0311C17.1759 12.755 17.1075 13.4582 16.9764 14.1372H13.1506ZM19.2965 9.86322H21.4582C21.614 10.5514 21.6984 11.266 21.6984 12.0001C21.6984 12.7343 21.6133 13.4491 21.4582 14.1372H19.3042C19.4143 13.4502 19.4771 12.7486 19.4771 12.0311C19.4773 11.2921 19.412 10.5691 19.2965 9.86322ZM20.6191 7.56161H18.7038C18.1205 5.94659 17.2162 4.46694 16.0228 3.17884C18.0009 4.08452 19.6231 5.6356 20.6191 7.56161ZM7.97748 3.17884C6.78379 4.46694 5.87971 5.94659 5.29618 7.56161H3.38086C4.37662 5.6356 5.99892 4.08452 7.97748 3.17884ZM3.38063 16.4386H5.2848C5.86629 18.0502 6.77105 19.5285 7.96656 20.8171C5.993 19.9105 4.37503 18.3619 3.38063 16.4386ZM16.0332 20.8171C17.229 19.5285 18.1337 18.0502 18.715 16.4386H20.6191C19.6247 18.3619 18.0068 19.9105 16.0332 20.8171Z" fill="#FD9724"/>
</svg>
